<svg xmlns="http://www.w3.org/2000/svg" xmlns:xlink="http://www.w3.org/1999/xlink" xmlns:lucid="lucid" width="784.36" height="339.91"><g transform="translate(-180 -126.14994268964819)" lucid:page-tab-id="0_0"><path d="M0 0h1760v1360H0z" fill="#fff"/><path d="M200 265c0-2.76 2.24-5 5-5h150c2.76 0 5 2.24 5 5v110c0 2.76-2.24 5-5 5H205c-2.76 0-5-2.24-5-5z" stroke="#000" stroke-width="2" fill="#fff"/><use xlink:href="#a" transform="matrix(1,0,0,1,200,260) translate(14.930925925925928 51.333333333333336)"/><use xlink:href="#b" transform="matrix(1,0,0,1,200,260) translate(36.82598765432099 79.77777777777777)"/><use xlink:href="#c" transform="matrix(1,0,0,1,200,260) translate(68.92475308641976 79.77777777777777)"/><use xlink:href="#d" transform="matrix(1,0,0,1,200,260) translate(97.25808641975308 79.77777777777777)"/><path d="M578.6 166.87c0-2.76 2.24-5 5-5h130c2.76 0 5 2.24 5 5v90c0 2.76-2.24 5-5 5h-130c-2.76 0-5-2.24-5-5z" stroke="#000" stroke-width="2" fill="#fff"/><use xlink:href="#e" transform="matrix(1,0,0,1,578.5991102130546,161.8678530492606) translate(42.63462962962962 55.708333333333336)"/><path d="M524.12 211.8h-4.93m-19.75 0c0-5.52 4.42-10 9.87-10 5.45 0 9.87 4.48 9.87 10s-4.43 10-9.88 10c-5.45 0-9.87-4.48-9.87-10z" stroke="#000" stroke-width="2" fill="#fff"/><path d="M524.12 212.2h-4.93v-.8h4.92z" fill="none"/><path d="M577.6 211.87h-26.7c-.03 0-.04-.02-.04-.04l-.03-.03h-26.7" stroke="#000" stroke-width="2" fill="none"/><path d="M578.6 212.87h-1v-2h1zM524.12 212.8h-3v-.6h3zm0-1.4h-3v-.6h3z"/><g fill="none"><path d="M491.33 211.75h-6.66m20 13.1c-7.37 0-13.34-5.87-13.34-13.1 0-7.22 5.97-13.08 13.34-13.08" stroke="#000" stroke-width="2"/><path d="M504.67 224.84c-7.37 0-13.34-5.86-13.34-13.1 0-7.2 5.97-13.07 13.34-13.07zM491.33 211.75c0 .3-.23.53-.52.53h-5.6c-.3 0-.53-.24-.53-.53 0-.3.23-.52.52-.52h5.6c.3 0 .53.23.53.52z"/></g><path d="M361 290.1h54c2.76 0 5-2.25 5-5v-68.35c0-2.76 2.24-5 5-5h59.67" stroke="#000" stroke-width="2" fill="none"/><path d="M361 291.1h-1v-2h1zM487.67 211.23h-2.48l-.38.15-.15.37.15.37.37.16h2.47v.47h-3v-2h3z"/><path d="M455.4 151.15c0-2.76 2.25-5 5-5h90c2.77 0 5 2.24 5 5v43.66c0 2.77-2.23 5-5 5h-90c-2.75 0-5-2.23-5-5z" stroke="#000" stroke-opacity="0" stroke-width="2" fill="#fff" fill-opacity="0"/><use xlink:href="#f" transform="matrix(1,0,0,1,455.40682169991504,146.14994268964819) translate(12.992654320987649 19.232222222222223)"/><use xlink:href="#g" transform="matrix(1,0,0,1,455.40682169991504,146.14994268964819) translate(10.029691358024687 40.565555555555555)"/><path d="M578.6 365c0-2.76 2.24-5 5-5h209.5c2.75 0 5 2.24 5 5v76.06c0 2.76-2.25 5-5 5H583.6c-2.76 0-5-2.24-5-5z" stroke="#000" stroke-width="2" fill="#fff"/><use xlink:href="#h" transform="matrix(1,0,0,1,578.5991102130546,360) translate(39.949444444444445 34.927083333333336)"/><use xlink:href="#b" transform="matrix(1,0,0,1,578.5991102130546,360) translate(12.066728395061725 63.37152777777778)"/><use xlink:href="#i" transform="matrix(1,0,0,1,578.5991102130546,360) translate(44.16549382716049 63.37152777777778)"/><use xlink:href="#d" transform="matrix(1,0,0,1,578.5991102130546,360) translate(181.01734567901235 63.37152777777778)"/><path d="M525.13 403.08h-4.93m-19.73 0c0-5.52 4.4-10 9.86-10 5.45 0 9.87 4.48 9.87 10s-4.42 10-9.87 10c-5.45 0-9.86-4.48-9.86-10z" stroke="#000" stroke-width="2" fill="#fff"/><path d="M525.13 403.48h-4.93v-.8h4.93z" fill="none"/><g fill="none"><path d="M492.35 403.03h-6.67m20 13.1c-7.36 0-13.33-5.87-13.33-13.1 0-7.23 5.97-13.1 13.33-13.1" stroke="#000" stroke-width="2"/><path d="M505.68 416.12c-7.36 0-13.33-5.86-13.33-13.1 0-7.22 5.97-13.08 13.33-13.08zM492.35 403.03c0 .3-.24.52-.53.52h-5.62c-.3 0-.52-.23-.52-.52 0-.3.23-.52.52-.52h5.62c.3 0 .53.24.53.53z"/></g><path d="M577.6 403.03h-52.47" stroke="#000" stroke-width="2" fill="none"/><path d="M578.6 404.03h-1v-2h1zM525.13 404.03h-3v-.55h3v-.8h-3v-.65h3z"/><path d="M361 349.85h54c2.76 0 5 2.24 5 5v43.18c0 2.76 2.24 5 5 5h60.68" stroke="#000" stroke-width="2" fill="none"/><path d="M361 350.85h-1v-2h1zM488.68 402.5h-2.48l-.37.16-.15.37.15.37.37.15h2.48v.48h-3v-2h3z"/><path d="M449.6 358.08c0-2.76 2.25-5 5-5h101.6c2.77 0 5 2.24 5 5v30c0 2.76-2.23 5-5 5H454.6c-2.75 0-5-2.24-5-5z" stroke="#000" stroke-opacity="0" stroke-width="2" fill="#fff" fill-opacity="0"/><use xlink:href="#j" transform="matrix(1,0,0,1,449.6087495716301,353.07785330543743) translate(9.634629629629616 24.22222222222222)"/><path d="M924.54 335.6c0 4.53-19.94 8.2-44.54 8.2-24.6 0-44.54-3.67-44.54-8.2v-65.54c0-4.52 19.94-8.2 44.54-8.2 24.6 0 44.54 3.68 44.54 8.2z" stroke="#000" stroke-width="2" fill="#fff"/><path d="M924.54 270.06c0 4.53-19.94 8.2-44.54 8.2-24.6 0-44.54-3.67-44.54-8.2" stroke="#000" stroke-width="2" fill="none"/><use xlink:href="#k" transform="matrix(1,0,0,1,835.4647938267274,283.2536032017355) translate(11.055000000000001 15.024249847525116)"/><use xlink:href="#l" transform="matrix(1,0,0,1,835.4647938267274,283.2536032017355) translate(53.005 15.024249847525116)"/><use xlink:href="#m" transform="matrix(1,0,0,1,835.4647938267274,283.2536032017355) translate(20.104999999999997 36.62424984752512)"/><g><path d="M879.77 360v4.93m0 19.74c-5.52 0-10-4.42-10-9.87 0-5.45 4.48-9.87 10-9.87 5.53 0 10 4.42 10 9.87 0 5.45-4.47 9.87-10 9.87z" stroke="#000" stroke-width="2" fill="#fff"/><path d="M880.17 360v4.93h-.8V360z" fill="none"/></g><g fill="none"><path d="M879.73 392.8v6.65m13.08-20c0 7.37-5.85 13.34-13.07 13.34-7.23 0-13.1-5.98-13.1-13.35" stroke="#000" stroke-width="2"/><path d="M892.8 379.45c0 7.37-5.85 13.34-13.07 13.34-7.23 0-13.1-5.98-13.1-13.35zM879.73 392.8c.3 0 .52.22.52.5v5.63c0 .3-.23.52-.52.52-.3 0-.53-.23-.53-.52v-5.62c0-.28.24-.5.53-.5z"/></g><path d="M880 344.8v7.5c0 .05-.05.1-.1.1-.08 0-.13.05-.13.1v7.5" stroke="#000" stroke-width="2" fill="none"/><path d="M881 344.8l-2-.02.02-1.03.98.05 1.02-.06zM880.77 360.02l-.04 3h-.56v-3zm-1-.02h-.4v3l-.64-.02.04-3z"/><path d="M799.1 419.82h75.63c2.76 0 5-2.23 5-5v-15.37" stroke="#000" stroke-width="2" fill="none"/><path d="M799.1 420.82h-1v-2h1zM879.2 398.93l.16.37.37.15h-1v-3h.47zm1.53.52h-1l.37-.15.15-.37v-2.48h.48z"/><path d="M892.1 367.33c0-2.76 2.25-5 5-5h42.26c2.77 0 5 2.24 5 5v24.07c0 2.76-2.23 5-5 5H897.1c-2.75 0-5-2.24-5-5z" stroke="#000" stroke-opacity="0" stroke-width="2" fill="#fff" fill-opacity="0"/><g><use xlink:href="#n" transform="matrix(1,0,0,1,892.107418453761,362.33333333333337) translate(7.28895061728395 19.232222222222223)"/></g><defs><path d="M205 0l-28-72H64L36 0H1l101-248h38L239 0h-34zm-38-99l-47-123c-12 45-31 82-46 123h93" id="o"/><path d="M115-194c55 1 70 41 70 98S169 2 115 4C84 4 66-9 55-30l1 105H24l-1-265h31l2 30c10-21 28-34 59-34zm-8 174c40 0 45-34 45-75s-6-73-45-74c-42 0-51 32-51 76 0 43 10 73 51 73" id="p"/><path d="M24 0v-261h32V0H24" id="q"/><path d="M24-231v-30h32v30H24zM24 0v-190h32V0H24" id="r"/><path d="M96-169c-40 0-48 33-48 73s9 75 48 75c24 0 41-14 43-38l32 2c-6 37-31 61-74 61-59 0-76-41-82-99-10-93 101-131 147-64 4 7 5 14 7 22l-32 3c-4-21-16-35-41-35" id="s"/><path d="M141-36C126-15 110 5 73 4 37 3 15-17 15-53c-1-64 63-63 125-63 3-35-9-54-41-54-24 1-41 7-42 31l-33-3c5-37 33-52 76-52 45 0 72 20 72 64v82c-1 20 7 32 28 27v20c-31 9-61-2-59-35zM48-53c0 20 12 33 32 33 41-3 63-29 60-74-43 2-92-5-92 41" id="t"/><path d="M59-47c-2 24 18 29 38 22v24C64 9 27 4 27-40v-127H5v-23h24l9-43h21v43h35v23H59v120" id="u"/><path d="M100-194c62-1 85 37 85 99 1 63-27 99-86 99S16-35 15-95c0-66 28-99 85-99zM99-20c44 1 53-31 53-75 0-43-8-75-51-75s-53 32-53 75 10 74 51 75" id="v"/><path d="M117-194c89-4 53 116 60 194h-32v-121c0-31-8-49-39-48C34-167 62-67 57 0H25l-1-190h30c1 10-1 24 2 32 11-22 29-35 61-36" id="w"/><g id="a"><use transform="matrix(0.07407407407407408,0,0,0.07407407407407408,0,0)" xlink:href="#o"/><use transform="matrix(0.07407407407407408,0,0,0.07407407407407408,17.77777777777778,0)" xlink:href="#p"/><use transform="matrix(0.07407407407407408,0,0,0.07407407407407408,32.592592592592595,0)" xlink:href="#p"/><use transform="matrix(0.07407407407407408,0,0,0.07407407407407408,47.40740740740741,0)" xlink:href="#q"/><use transform="matrix(0.07407407407407408,0,0,0.07407407407407408,53.25925925925927,0)" xlink:href="#r"/><use transform="matrix(0.07407407407407408,0,0,0.07407407407407408,59.11111111111112,0)" xlink:href="#s"/><use transform="matrix(0.07407407407407408,0,0,0.07407407407407408,72.44444444444446,0)" xlink:href="#t"/><use transform="matrix(0.07407407407407408,0,0,0.07407407407407408,87.25925925925927,0)" xlink:href="#u"/><use transform="matrix(0.07407407407407408,0,0,0.07407407407407408,94.66666666666669,0)" xlink:href="#r"/><use transform="matrix(0.07407407407407408,0,0,0.07407407407407408,100.51851851851852,0)" xlink:href="#v"/><use transform="matrix(0.07407407407407408,0,0,0.07407407407407408,115.33333333333334,0)" xlink:href="#w"/></g><path d="M23-100v-36l175-74v27L47-118l151 64v27" id="x"/><g id="b"><use transform="matrix(0.06172839506172839,0,0,0.06172839506172839,0,0)" xlink:href="#x"/><use transform="matrix(0.06172839506172839,0,0,0.06172839506172839,12.962962962962962,0)" xlink:href="#x"/></g><path d="M62-99C39-31 123 0 170-40s38-139 58-208h34C234-144 253 4 115 4 49 4 18-43 31-112l26-136h34" id="y"/><path d="M14 0l48-248h34L48 0H14" id="z"/><g id="c"><use transform="matrix(0.06172839506172839,0,0,0.06172839506172839,0,0)" xlink:href="#y"/><use transform="matrix(0.06172839506172839,0,0,0.06172839506172839,15.987654320987653,0)" xlink:href="#z"/></g><path d="M23-27v-27l151-64-151-65v-27l175 74v36" id="A"/><g id="d"><use transform="matrix(0.06172839506172839,0,0,0.06172839506172839,0,0)" xlink:href="#A"/><use transform="matrix(0.06172839506172839,0,0,0.06172839506172839,12.962962962962962,0)" xlink:href="#A"/></g><path d="M140-251c81 0 123 46 123 126C263-53 228-8 163 1c7 30 30 48 69 40v23c-55 16-95-15-103-61C56-3 17-48 17-125c0-80 42-126 123-126zm0 227c63 0 89-41 89-101s-29-99-89-99c-61 0-89 39-89 99S79-25 140-24" id="B"/><path d="M84 4C-5 8 30-112 23-190h32v120c0 31 7 50 39 49 72-2 45-101 50-169h31l1 190h-30c-1-10 1-25-2-33-11 22-28 36-60 37" id="C"/><path d="M9 0v-24l116-142H16v-24h144v24L44-24h123V0H9" id="D"/><g id="e"><use transform="matrix(0.07407407407407408,0,0,0.07407407407407408,0,0)" xlink:href="#B"/><use transform="matrix(0.07407407407407408,0,0,0.07407407407407408,20.740740740740744,0)" xlink:href="#C"/><use transform="matrix(0.07407407407407408,0,0,0.07407407407407408,35.55555555555556,0)" xlink:href="#r"/><use transform="matrix(0.07407407407407408,0,0,0.07407407407407408,41.40740740740741,0)" xlink:href="#D"/></g><path d="M143 4C61 4 22-44 18-125c-5-107 100-154 193-111 17 8 29 25 37 43l-32 9c-13-25-37-40-76-40-61 0-88 39-88 99 0 61 29 100 91 101 35 0 62-11 79-27v-45h-74v-28h105v86C228-13 192 4 143 4" id="E"/><path d="M100-194c63 0 86 42 84 106H49c0 40 14 67 53 68 26 1 43-12 49-29l28 8c-11 28-37 45-77 45C44 4 14-33 15-96c1-61 26-98 85-98zm52 81c6-60-76-77-97-28-3 7-6 17-6 28h103" id="F"/><path d="M114-163C36-179 61-72 57 0H25l-1-190h30c1 12-1 29 2 39 6-27 23-49 58-41v29" id="G"/><g id="f"><use transform="matrix(0.04938271604938272,0,0,0.04938271604938272,0,0)" xlink:href="#E"/><use transform="matrix(0.04938271604938272,0,0,0.04938271604938272,13.827160493827162,0)" xlink:href="#F"/><use transform="matrix(0.04938271604938272,0,0,0.04938271604938272,23.703703703703706,0)" xlink:href="#w"/><use transform="matrix(0.04938271604938272,0,0,0.04938271604938272,33.580246913580254,0)" xlink:href="#F"/><use transform="matrix(0.04938271604938272,0,0,0.04938271604938272,43.4567901234568,0)" xlink:href="#G"/><use transform="matrix(0.04938271604938272,0,0,0.04938271604938272,49.33333333333334,0)" xlink:href="#t"/><use transform="matrix(0.04938271604938272,0,0,0.04938271604938272,59.209876543209894,0)" xlink:href="#u"/><use transform="matrix(0.04938271604938272,0,0,0.04938271604938272,64.14814814814815,0)" xlink:href="#F"/></g><path d="M135-143c-3-34-86-38-87 0 15 53 115 12 119 90S17 21 10-45l28-5c4 36 97 45 98 0-10-56-113-15-118-90-4-57 82-63 122-42 12 7 21 19 24 35" id="H"/><g id="g"><use transform="matrix(0.04938271604938272,0,0,0.04938271604938272,0,0)" xlink:href="#B"/><use transform="matrix(0.04938271604938272,0,0,0.04938271604938272,13.827160493827162,0)" xlink:href="#C"/><use transform="matrix(0.04938271604938272,0,0,0.04938271604938272,23.703703703703706,0)" xlink:href="#F"/><use transform="matrix(0.04938271604938272,0,0,0.04938271604938272,33.580246913580254,0)" xlink:href="#H"/><use transform="matrix(0.04938271604938272,0,0,0.04938271604938272,42.46913580246914,0)" xlink:href="#u"/><use transform="matrix(0.04938271604938272,0,0,0.04938271604938272,47.40740740740741,0)" xlink:href="#r"/><use transform="matrix(0.04938271604938272,0,0,0.04938271604938272,51.308641975308646,0)" xlink:href="#v"/><use transform="matrix(0.04938271604938272,0,0,0.04938271604938272,61.18518518518519,0)" xlink:href="#w"/><use transform="matrix(0.04938271604938272,0,0,0.04938271604938272,71.06172839506173,0)" xlink:href="#H"/></g><path d="M30-248c87 1 191-15 191 75 0 78-77 80-158 76V0H30v-248zm33 125c57 0 124 11 124-50 0-59-68-47-124-48v98" id="I"/><g id="h"><use transform="matrix(0.07407407407407408,0,0,0.07407407407407408,0,0)" xlink:href="#I"/><use transform="matrix(0.07407407407407408,0,0,0.07407407407407408,17.77777777777778,0)" xlink:href="#F"/><use transform="matrix(0.07407407407407408,0,0,0.07407407407407408,32.592592592592595,0)" xlink:href="#G"/><use transform="matrix(0.07407407407407408,0,0,0.07407407407407408,41.40740740740741,0)" xlink:href="#H"/><use transform="matrix(0.07407407407407408,0,0,0.07407407407407408,54.74074074074075,0)" xlink:href="#r"/><use transform="matrix(0.07407407407407408,0,0,0.07407407407407408,60.5925925925926,0)" xlink:href="#H"/><use transform="matrix(0.07407407407407408,0,0,0.07407407407407408,73.92592592592594,0)" xlink:href="#u"/><use transform="matrix(0.07407407407407408,0,0,0.07407407407407408,81.33333333333334,0)" xlink:href="#F"/><use transform="matrix(0.07407407407407408,0,0,0.07407407407407408,96.14814814814814,0)" xlink:href="#w"/><use transform="matrix(0.07407407407407408,0,0,0.07407407407407408,110.96296296296296,0)" xlink:href="#s"/><use transform="matrix(0.07407407407407408,0,0,0.07407407407407408,124.29629629629632,0)" xlink:href="#F"/></g><path d="M67-158c22-48 132-52 116 29L158 0h-32l25-140c3-38-53-32-70-12C52-117 51-52 38 0H6l36-190h30" id="J"/><path d="M76-167L44 0H12l33-167H18l4-23h27c3-47 25-81 82-69l-4 24c-35-8-44 15-46 45h37l-5 23H76" id="K"/><path d="M66-151c12-25 30-51 66-40l-6 26C45-176 58-65 38 0H6l36-190h30" id="L"/><path d="M165-48c-4 18 1 34 23 27l-3 20c-29 8-62 0-52-35h-2C116-14 99 4 63 4 30 4 8-16 8-49c0-68 71-67 138-67 10-26 0-56-31-54-26 1-42 9-47 31l-32-5c8-67 160-71 144 15-5 28-9 54-15 81zM42-50c3 52 80 24 89-6 7-12 7-24 11-38-47 1-103-4-100 44" id="M"/><path d="M55-144c13 50 104 24 104 88C159 21 15 23 1-39l26-10c6 40 102 42 102-4-13-50-104-23-104-87 0-71 143-71 148-8l-29 4c-5-35-85-37-89 0" id="N"/><path d="M51-54c-9 22 5 41 31 30L79-1C43 14 10-4 19-52l22-115H19l5-23h22l19-43h21l-9 43h35l-4 23H73" id="O"/><path d="M67 3c-93-2-31-127-26-193h32L48-50c-3 39 53 32 70 12 30-34 30-101 43-152h32L157 0h-30c1-10 6-24 4-33-14 20-29 37-64 36" id="P"/><path d="M44-68c0 29 11 47 38 47 30 0 42-19 51-41l28 9C148-21 126 4 82 4 31 4 10-29 12-85c3-77 74-140 146-93 12 8 15 23 18 40l-31 5c-1-22-13-36-36-36-52 0-65 49-65 101" id="Q"/><path d="M111-194c62-3 86 47 72 106H45c-7 38 6 69 45 68 27-1 43-14 53-32l24 11C152-15 129 4 87 4 38 3 12-23 12-71c0-70 32-119 99-123zm44 81c14-66-71-72-95-28-4 8-8 17-11 28h106" id="R"/><g id="i"><use transform="matrix(0.06172839506172839,0,0,0.06172839506172839,0,0)" xlink:href="#z"/><use transform="matrix(0.06172839506172839,0,0,0.06172839506172839,6.172839506172839,0)" xlink:href="#J"/><use transform="matrix(0.06172839506172839,0,0,0.06172839506172839,18.51851851851852,0)" xlink:href="#K"/><use transform="matrix(0.06172839506172839,0,0,0.06172839506172839,24.691358024691358,0)" xlink:href="#L"/><use transform="matrix(0.06172839506172839,0,0,0.06172839506172839,32.03703703703704,0)" xlink:href="#M"/><use transform="matrix(0.06172839506172839,0,0,0.06172839506172839,44.382716049382715,0)" xlink:href="#N"/><use transform="matrix(0.06172839506172839,0,0,0.06172839506172839,55.49382716049382,0)" xlink:href="#O"/><use transform="matrix(0.06172839506172839,0,0,0.06172839506172839,61.666666666666664,0)" xlink:href="#L"/><use transform="matrix(0.06172839506172839,0,0,0.06172839506172839,69.01234567901234,0)" xlink:href="#P"/><use transform="matrix(0.06172839506172839,0,0,0.06172839506172839,81.35802469135803,0)" xlink:href="#Q"/><use transform="matrix(0.06172839506172839,0,0,0.06172839506172839,92.46913580246914,0)" xlink:href="#O"/><use transform="matrix(0.06172839506172839,0,0,0.06172839506172839,98.64197530864197,0)" xlink:href="#P"/><use transform="matrix(0.06172839506172839,0,0,0.06172839506172839,110.98765432098766,0)" xlink:href="#L"/><use transform="matrix(0.06172839506172839,0,0,0.06172839506172839,118.33333333333334,0)" xlink:href="#R"/></g><g id="j"><use transform="matrix(0.04938271604938272,0,0,0.04938271604938272,0,0)" xlink:href="#I"/><use transform="matrix(0.04938271604938272,0,0,0.04938271604938272,11.851851851851853,0)" xlink:href="#F"/><use transform="matrix(0.04938271604938272,0,0,0.04938271604938272,21.7283950617284,0)" xlink:href="#G"/><use transform="matrix(0.04938271604938272,0,0,0.04938271604938272,27.604938271604947,0)" xlink:href="#H"/><use transform="matrix(0.04938271604938272,0,0,0.04938271604938272,36.49382716049384,0)" xlink:href="#r"/><use transform="matrix(0.04938271604938272,0,0,0.04938271604938272,40.39506172839507,0)" xlink:href="#H"/><use transform="matrix(0.04938271604938272,0,0,0.04938271604938272,49.28395061728396,0)" xlink:href="#u"/><use transform="matrix(0.04938271604938272,0,0,0.04938271604938272,54.222222222222236,0)" xlink:href="#F"/><use transform="matrix(0.04938271604938272,0,0,0.04938271604938272,64.09876543209879,0)" xlink:href="#w"/><use transform="matrix(0.04938271604938272,0,0,0.04938271604938272,73.97530864197533,0)" xlink:href="#s"/><use transform="matrix(0.04938271604938272,0,0,0.04938271604938272,82.86419753086422,0)" xlink:href="#F"/></g><g id="k"><use transform="matrix(0.05,0,0,0.05,0,0)" xlink:href="#B"/><use transform="matrix(0.05,0,0,0.05,14,0)" xlink:href="#C"/><use transform="matrix(0.05,0,0,0.05,24,0)" xlink:href="#r"/><use transform="matrix(0.05,0,0,0.05,27.950000000000003,0)" xlink:href="#D"/></g><path d="M30-248c118-7 216 8 213 122C240-48 200 0 122 0H30v-248zM63-27c89 8 146-16 146-99s-60-101-146-95v194" id="S"/><path d="M160-131c35 5 61 23 61 61C221 17 115-2 30 0v-248c76 3 177-17 177 60 0 33-19 50-47 57zm-97-11c50-1 110 9 110-42 0-47-63-36-110-37v79zm0 115c55-2 124 14 124-45 0-56-70-42-124-44v89" id="T"/><g id="l"><use transform="matrix(0.05,0,0,0.05,0,0)" xlink:href="#S"/><use transform="matrix(0.05,0,0,0.05,12.950000000000001,0)" xlink:href="#T"/></g><path d="M87 75C49 33 22-17 22-94c0-76 28-126 65-167h31c-38 41-64 92-64 168S80 34 118 75H87" id="U"/><path d="M33-261c38 41 65 92 65 168S71 34 33 75H2C39 34 66-17 66-93S39-220 2-261h31" id="V"/><g id="m"><use transform="matrix(0.05,0,0,0.05,0,0)" xlink:href="#U"/><use transform="matrix(0.05,0,0,0.05,5.95,0)" xlink:href="#q"/><use transform="matrix(0.05,0,0,0.05,9.9,0)" xlink:href="#v"/><use transform="matrix(0.05,0,0,0.05,19.9,0)" xlink:href="#s"/><use transform="matrix(0.05,0,0,0.05,28.899999999999995,0)" xlink:href="#t"/><use transform="matrix(0.05,0,0,0.05,38.9,0)" xlink:href="#q"/><use transform="matrix(0.05,0,0,0.05,42.85,0)" xlink:href="#V"/></g><path d="M212-179c-10-28-35-45-73-45-59 0-87 40-87 99 0 60 29 101 89 101 43 0 62-24 78-52l27 14C228-24 195 4 139 4 59 4 22-46 18-125c-6-104 99-153 187-111 19 9 31 26 39 46" id="W"/><g id="n"><use transform="matrix(0.04938271604938272,0,0,0.04938271604938272,0,0)" xlink:href="#S"/><use transform="matrix(0.04938271604938272,0,0,0.04938271604938272,12.790123456790125,0)" xlink:href="#T"/><use transform="matrix(0.04938271604938272,0,0,0.04938271604938272,24.641975308641978,0)" xlink:href="#W"/></g></defs></g></svg>